<?xml version="1.0" encoding="UTF-8" standalone="no"?>
<!-- Created with Inkscape (http://www.inkscape.org/) -->
<svg
   xmlns:dc="http://purl.org/dc/elements/1.1/"
   xmlns:cc="http://creativecommons.org/ns#"
   xmlns:rdf="http://www.w3.org/1999/02/22-rdf-syntax-ns#"
   xmlns:svg="http://www.w3.org/2000/svg"
   xmlns="http://www.w3.org/2000/svg"
   xmlns:sodipodi="http://sodipodi.sourceforge.net/DTD/sodipodi-0.dtd"
   xmlns:inkscape="http://www.inkscape.org/namespaces/inkscape"
   version="1.0"
   width="660.97754"
   height="205.42857"
   id="svg2"
   sodipodi:version="0.32"
   inkscape:version="0.46"
   sodipodi:docname="ATS.svg"
   inkscape:output_extension="org.inkscape.output.svg.inkscape">
  <metadata
     id="metadata2478">
    <rdf:RDF>
      <cc:Work
         rdf:about="">
        <dc:format>image/svg+xml</dc:format>
        <dc:type
           rdf:resource="http://purl.org/dc/dcmitype/StillImage" />
      </cc:Work>
    </rdf:RDF>
  </metadata>
  <sodipodi:namedview
     inkscape:window-height="844"
     inkscape:window-width="1440"
     inkscape:pageshadow="2"
     inkscape:pageopacity="0.0"
     guidetolerance="10.0"
     gridtolerance="10.0"
     objecttolerance="10.0"
     borderopacity="1.0"
     bordercolor="#666666"
     pagecolor="#ffffff"
     id="base"
     showgrid="false"
     inkscape:zoom="1.69446"
     inkscape:cx="345.77199"
     inkscape:cy="135.86701"
     inkscape:window-x="-4"
     inkscape:window-y="-4"
     inkscape:current-layer="svg2" />
  <defs
     id="defs4">
    <inkscape:perspective
       sodipodi:type="inkscape:persp3d"
       inkscape:vp_x="0 : 102.71429 : 1"
       inkscape:vp_y="0 : 1000 : 0"
       inkscape:vp_z="660.97754 : 102.71429 : 1"
       inkscape:persp3d-origin="330.48877 : 68.476191 : 1"
       id="perspective2480" />
    <inkscape:perspective
       id="perspective2489"
       inkscape:persp3d-origin="372.04724 : 350.78739 : 1"
       inkscape:vp_z="744.09448 : 526.18109 : 1"
       inkscape:vp_y="0 : 1000 : 0"
       inkscape:vp_x="0 : 526.18109 : 1"
       sodipodi:type="inkscape:persp3d" />
  </defs>
  <g
     transform="translate(-2.2990653,-5.7343493)"
     id="layer1">
    <path
       style="fill:#000000;fill-opacity:1;stroke:#000000;stroke-width:4;stroke-linecap:butt;stroke-linejoin:miter;stroke-miterlimit:4;stroke-dashoffset:0;stroke-opacity:1"
       d="M 7.8571,7.7343493 L 204.99995,7.7343493 L 204.99995,209.16292 L 7.8571,209.16292 L 7.8571,7.7343493 z"
       id="rect2409" />
    <path
       style="fill:#000000;fill-opacity:1;stroke:#000000;stroke-width:4;stroke-linecap:butt;stroke-linejoin:miter;stroke-miterlimit:4;stroke-dashoffset:0;stroke-opacity:1"
       d="M 232.92853,7.7343493 L 430.07138,7.7343493 L 430.07138,209.16292 L 232.92853,209.16292 L 232.92853,7.7343493 z"
       id="rect3181" />
    <path
       style="fill:#000000;fill-opacity:1;stroke:#000000;stroke-width:4;stroke-linecap:butt;stroke-linejoin:miter;stroke-miterlimit:4;stroke-dashoffset:0;stroke-opacity:1"
       d="M 458.03571,7.7343493 L 655.17856,7.7343493 L 655.17856,209.16292 L 458.03571,209.16292 L 458.03571,7.7343493 z"
       id="rect3183" />
    <path
       transform="matrix(1.1607777,0,8.1553818e-2,0.8614914,0,0)"
       style="font-size:198.46560669px;font-style:italic;font-variant:normal;font-weight:900;font-stretch:normal;writing-mode:lr-tb;fill:#f9b418;fill-opacity:1;stroke:none;stroke-width:1px;stroke-linecap:butt;stroke-linejoin:miter;stroke-opacity:1;font-family:Arial Black;-inkscape-font-specification:Arial Black Heavy Italic"
       d="M 107.96634,171.80779 L 57.962315,171.80779 L 43.111312,195.25929 L -1.7566449,195.25929 L 99.917004,53.19358 L 147.78908,53.19358 L 152.90698,195.25929 L 106.97305,195.25929 L 107.96634,171.80779 z M 109.20191,141.08826 L 110.85539,90.018253 L 77.900937,141.08826 L 109.20191,141.08826 z"
       id="text3193" />
    <path
       transform="matrix(1.1854111,0,0.1476177,0.8435892,0,0)"
       style="font-size:202.47434998px;font-style:italic;font-variant:normal;font-weight:900;font-stretch:normal;fill:#f9b418;fill-opacity:1;stroke:none;stroke-width:1px;stroke-linecap:butt;stroke-linejoin:miter;stroke-opacity:1;font-family:Arial Black;-inkscape-font-specification:Arial Black Heavy Italic"
       d="M 207.89549,54.001454 L 344.0318,54.001454 L 331.87148,89.790377 L 286.19611,89.790377 L 249.10341,198.93671 L 204.31783,198.93671 L 241.41053,89.790377 L 195.73516,89.790377 L 207.89549,54.001454 z"
       id="text3197" />
    <text
       x="87.37291"
       y="139.24751"
       transform="scale(1.3030908,0.7674062)"
       id="text3201"
       xml:space="preserve"
       style="font-size:52.12363052px;font-style:italic;font-variant:normal;font-weight:normal;font-stretch:normal;fill:#000000;fill-opacity:1;stroke:none;stroke-width:1px;stroke-linecap:butt;stroke-linejoin:miter;stroke-opacity:1;font-family:Andale Sans UI;-inkscape-font-specification:Andale Sans UI Italic"><tspan
         x="87.37291"
         y="139.24751"
         id="tspan3203"
         style="text-align:start;writing-mode:lr-tb;text-anchor:start;-inkscape-font-specification:Andale Sans UI Italic" /></text>
  </g>
  <text
     xml:space="preserve"
     style="font-size:144;font-style:normal;font-variant:normal;font-weight:normal;font-stretch:normal;fill:#000000;fill-opacity:1;stroke:none;stroke-width:1px;stroke-linecap:butt;stroke-linejoin:miter;stroke-opacity:1;font-family:Andale Sans;-inkscape-font-specification:Andale Sans"
     x="-374.16049"
     y="-42.438004"
     id="text2495"><tspan
       sodipodi:role="line"
       id="tspan2497"
       x="-374.16049"
       y="-42.438004" /></text>
  <path
     style="fill:#f9b418;fill-opacity:1;fill-rule:evenodd;stroke:#f9b418;stroke-width:0.59047729;stroke-linecap:round;stroke-linejoin:round;stroke-miterlimit:4;stroke-dasharray:none;stroke-dashoffset:0;stroke-opacity:1"
     d="M 549.841,80.018276 C 548.26652,76.384975 549.57957,72.751617 550.32926,69.118315 C 551.90326,67.123546 552.43766,63.846424 556.7657,61.851655 C 560.55365,59.600484 564.88909,59.686126 569.86057,59.714402 L 635.33489,68.690864 L 641.32744,45.822286 L 567.64109,39.624281 C 542.7523,37.951273 531.27726,38.246137 520.89913,39.367811 C 510.49112,40.705511 504.15058,44.80228 496.17422,50.267773 C 489.03659,54.428535 484.12432,61.95184 479.30629,68.904619 C 477.08747,75.103029 472.99489,81.985036 479.79454,93.611148 C 483.76761,99.50729 485.15611,104.48178 502.78829,109.9397 C 514.03731,112.82785 525.60443,113.6134 528.22336,114.25693 C 539.36167,114.74137 544.61275,115.73875 553.61409,116.2232 C 556.56196,115.76341 565.01342,117.56651 565.68802,121.56636 C 567.29879,125.34214 567.33993,128.94695 565.42168,132.72279 C 563.84878,134.80699 563.87205,135.76567 557.60914,140.16037 C 551.72585,142.13112 552.08631,142.04924 540.78555,140.50234 L 475.53321,131.31217 L 467.32119,150.5474 L 497.06202,155.67681 L 534.79301,161.23366 C 545.85425,163.6968 568.55419,162.35124 579.40433,161.31916 C 586.013,160.22499 591.04968,159.13728 596.05029,157.60036 C 603.98125,154.39422 609.97777,150.88423 618.46689,144.9906 C 622.26837,141.7906 624.25942,141.10935 629.12037,132.80828 C 630.9659,128.09404 632.04457,123.33571 631.78373,118.06127 C 632.13117,113.43058 631.71598,108.79984 629.12037,104.16915 C 626.96499,99.25136 621.061,95.511979 611.80853,92.414287 C 604.5217,89.991069 602.12794,89.483923 586.50659,87.712329 L 557.60914,85.746056 C 552.02373,84.250078 550.54072,82.488173 549.841,80.018276 z"
     id="path3271"
     sodipodi:nodetypes="cccccccccccccccccccccccccccccccc" />
</svg>
